<svg xmlns="http://www.w3.org/2000/svg" version="1.1" xmlns:xlink="http://www.w3.org/1999/xlink" xmlns:svgjs="http://svgjs.com/svgjs" width="1920" height="1090" preserveAspectRatio="none" viewBox="0 0 1920 1090"><g mask="url(&quot;#SvgjsMask1130&quot;)" fill="none"><rect width="1920" height="1090" x="0" y="0" fill="url(#SvgjsLinearGradient1131)"></rect><path d="M0 0L491.91 0L0 286.89z" fill="rgba(255, 255, 255, .1)"></path><path d="M0 286.89L491.91 0L1181.44 0L0 517.55z" fill="rgba(255, 255, 255, .075)"></path><path d="M0 517.55L1181.44 0L1409.89 0L0 701.98z" fill="rgba(255, 255, 255, .05)"></path><path d="M0 701.98L1409.89 0L1708.29 0L0 895.12z" fill="rgba(255, 255, 255, .025)"></path><path d="M1920 1090L1657.79 1090L1920 869.98z" fill="rgba(0, 0, 0, .1)"></path><path d="M1920 869.98L1657.79 1090L1318.81 1090L1920 860.09z" fill="rgba(0, 0, 0, .075)"></path><path d="M1920 860.0899999999999L1318.81 1090L1146.6499999999999 1090L1920 422.5399999999999z" fill="rgba(0, 0, 0, .05)"></path><path d="M1920 422.53999999999996L1146.65 1090L852.9100000000001 1090L1920 176.20999999999995z" fill="rgba(0, 0, 0, .025)"></path></g><defs><mask id="SvgjsMask1130"><rect width="1920" height="1090" fill="#ffffff"></rect></mask><linearGradient x1="10.81%" y1="-19.04%" x2="89.19%" y2="119.04%" gradientUnits="userSpaceOnUse" id="SvgjsLinearGradient1131"><stop stop-color="rgba(18, 18, 18, 1)" offset="0"></stop><stop stop-color="rgba(18, 18, 18, 1)" offset="1"></stop></linearGradient></defs></svg>